<svg xmlns="http://www.w3.org/2000/svg" version="1.1" xmlns:xlink="http://www.w3.org/1999/xlink" xmlns:svgjs="http://svgjs.dev/svgjs" width="100%" height="100%" viewBox="0 0 1000 600"><rect width="1000" height="600" x="0" y="0" fill="#010101"/><g><rect width="333.3333333333333" height="333.3333333333333" y="253.05813190729137" fill="#fcff33" transform="matrix(0.5415100593149186,0,0,0.5415100593149187,0,72.7147752589641)" x="230.83578491210938"/><path d="M419.64744047927917 348.89638012904254L468.7598657757327 347.2395754202465L461.24507298940784 488.2750762565079L406.74803238936727 493.2750761812673L377.6356067919515 417.7425329391915L373.04980804439106 494.72478030146385L326.2450750209034 494.72478030146385L330.00247141406584 347.2395754202465L382.0143049509124 344.7247825586811L417.99063577048315 419.60643823658705L419.64744047927917 348.89638012904254Z " fill="#3358ff " transform="matrix(0.5415100593149186,0,0,0.5415100593149187,0,72.7147752589641)"/><path d="M744.0667631225514 347.373527345596L783.567721080123 483.61152519926145L733.3565908483409 490.0894519780178L727.2817350691516 467.2007773597456L704.191524951096 467.2007773597456L699.1243466708245 490.0894519780178L647.5024679405576 485.0222736977462L687.8095678972634 350.1950243425655L744.0667631225514 347.373527345596ZM708.4525612322334 436.2218919644489L723.6253052873649 436.2218919644489L715.9381655099073 401.01076107369806L708.4525612322334 436.2218919644489ZM902.6752014521884 349.7919533429984L902.6752014521884 349.7919533429984Q898.1262573142174 385.40615523331627 894.901689317681 420.70365848111715Q891.648330535461 455.9723709432347 888.7116703957582 491.70173597628605L888.7116703957582 491.70173597628605L847.2241482260347 494.7247684730389L849.0379677240865 479.1489534183405Q847.0226127262512 481.48100705869274 844.3450696576986 483.2084541996944Q841.6387358034626 484.90711055501276 838.6157033067096 485.9723696252971Q835.5926708099568 487.0376286955815 832.3393120277369 487.4982812665153Q829.1147440312005 487.9589338374491 826.1780838914976 487.8437706947156L826.1780838914976 487.8437706947156Q819.2970861131743 487.7573983376655 813.2222303339851 485.16622762616305Q807.1473745547959 482.5750569146605 802.0801962745243 478.2852298478397Q797.0130179942527 473.9954027810188 792.9535172128988 468.26603643002994Q788.9228072172282 462.5366700790411 786.130101005942 456.2314880143849Q783.337394794656 449.89751516404544 781.8690647248046 443.30442524255574Q780.4295254406366 436.74012610674936 780.4295254406366 430.5501071848267L780.4295254406366 430.5501071848267Q780.4295254406366 421.45221890888456 780.7750148688369 411.69214256222506Q781.1205042970372 401.9320662155656 782.0418094389048 392.11440829753946Q782.934323795089 382.29675037951324 784.4026538649405 372.6806279612706Q785.8709839347919 363.06450554302796 788.116665218094 354.2545251239194L788.116665218094 354.2545251239194Q800.467912276256 354.85913162326995 812.9055316914681 355.34857497988713Q825.3431511066801 355.86680912218765 837.6943981648421 355.66527362240413L837.6943981648421 355.66527362240413Q835.3911353101731 364.47525404151264 833.0878724555043 373.31402524630454Q830.8134003865188 382.1815872367798 828.999580888467 391.13552158430514Q827.1857613904152 400.0894559318305 826.0629207487642 409.10097185072254Q824.9400801071131 418.11248776961463 824.9400801071131 427.32553918829024L824.9400801071131 427.32553918829024Q824.9400801071131 429.45605732885895 825.1416156068966 433.4003949674795Q825.3431511066801 437.3447326060999 826.206874677181 441.20269788767035Q827.0705982476818 445.0318723835574 828.8556269600502 447.91095095189354Q830.6118648867352 450.81882030591305 833.8652236689551 450.81882030591305L833.8652236689551 450.81882030591305Q837.6943981648421 450.81882030591305 840.7462214472783 447.50787995232645Q843.7692539440313 444.2257303844233 846.1013075843836 438.6691087475346Q848.4333612247358 433.0836963249625 850.1032267943708 425.7996275470721Q851.7730923640057 418.5155587691817 852.9247237913402 410.569301920574Q854.1051460043581 402.6230450719663 854.824915646442 394.5328342949418Q855.5158945028428 386.44262351791724 855.8613839310431 379.3025086684437Q856.2356641449268 372.1623938189701 856.3796180733435 366.49060903934793Q856.5235720017604 360.8188242597258 856.5235720017604 357.6806286202394L856.5235720017604 357.6806286202394Q856.5235720017604 355.66527362240413 856.4371996447103 353.7362909816189Q856.3220365019769 351.8073083408337 856.1205010021932 349.7919533429984L856.1205010021932 349.7919533429984Q862.713590923683 349.9934888427819 869.1915177024393 350.1086519855154Q875.6694444811957 350.1950243425655 882.233743617002 350.1950243425655L882.233743617002 350.1950243425655Q887.3009218972735 350.1950243425655 892.4256817489119 350.1374427711987Q897.5216508148668 350.1086519855154 902.6752014521884 349.7919533429984ZM905.6118615918913 349.7919533429984L1015.9381523305316 349.5904178432149L1014.9304748316139 392.5174792971065L984.7865222211348 393.72669229580765L981.1300924393479 487.642235194932L938.4045664852398 489.8879164782342L934.5753919893526 395.94358279342646L904.4026485931901 397.5558667916947L905.6118615918913 349.7919533429984ZM1152.089777827147 348.78427584408075L1199.8536912758432 347.1719918458125L1192.5696224979529 484.41766719839563L1139.5369952692015 489.28330997888366L1111.2068621567742 415.7804341292624L1106.7442903758529 490.69405847736834L1061.1972674247754 490.69405847736834L1064.824906420879 347.1719918458125L1115.439107652228 344.72477506272685L1150.4774938288788 417.5942536273142L1152.089777827147 348.78427584408075ZM1321.0053174314276 410.5117203492073L1321.0053174314276 410.5117203492073Q1321.0053174314276 419.32170076831585 1319.7961044327262 428.13168118742436L1319.7961044327262 428.13168118742436Q1302.4928422370263 429.25452182907543 1285.3911155411097 431.7305293978445Q1268.2893888451931 434.2065369666136 1251.1876621492765 436.62496296401594L1251.1876621492765 436.62496296401594Q1253.8076236464622 443.9378225275897 1259.421826854718 448.28523116577725Q1265.0360300629732 452.6326398039648 1272.838332983164 452.6326398039648L1272.838332983164 452.6326398039648Q1276.897833764518 452.6326398039648 1281.7058949736393 451.10672816274666Q1286.513956182761 449.5808165215285 1291.2644358205152 447.30634445254293Q1296.01491545827 445.0318723835574 1300.3623240964575 442.4119108863715Q1304.709732734645 439.7631586035023 1307.8479283741312 437.6614312486169L1307.8479283741312 437.6614312486169L1303.0110763793268 483.61152519926145Q1299.0667387407061 486.63455769601444 1294.4602130313683 488.76507583658315Q1289.8536873220305 490.89559397715186 1284.872881398809 492.1911793329032Q1279.920866261271 493.51555547433776 1274.8536879809994 494.12016197368837Q1269.8153004864112 494.7247684730389 1264.949657705923 494.7247684730389L1264.949657705923 494.7247684730389Q1254.9304642881134 494.7247684730389 1246.609927225622 491.98964383311966Q1238.318180948814 489.28330997888366 1231.5811370989072 484.36008562702887Q1224.8728840346844 479.46565206085745 1219.8057057544127 472.75739899663427Q1214.738527474141 466.0779367180945 1211.3987963348711 458.1892614408535Q1208.0590651956013 450.3005861636125 1206.3316180545996 441.49060574450397Q1204.6329616992812 432.68062532539545 1204.6329616992812 423.66910940650337L1204.6329616992812 423.66910940650337Q1204.6329616992812 414.25452248804424 1206.3316180545996 404.8399355695851Q1208.0590651956013 395.4541394368093 1211.5427502632879 386.73053137475085Q1215.055226116658 378.0357140983758 1220.3527306823964 370.5789006063852Q1225.6790260338184 363.15087790007806 1232.7615593119253 357.5942562631893Q1239.8440925900322 352.00884384061726 1248.7980269375573 348.87064820113085Q1257.7519612850829 345.73245256164444 1268.5772967020266 345.73245256164444L1268.5772967020266 345.73245256164444Q1277.5888126209188 345.73245256164444 1285.0456261129093 348.2372509160969Q1292.4736488192166 350.71325848486595 1298.2893875272553 355.11824869442023Q1304.1051262352944 359.49444811829113 1308.4237440877987 365.5693038974804Q1312.7135711546193 371.6441596766696 1315.5062773659056 378.8994376688766Q1318.2989835771914 386.1259248754003 1319.6521505043097 394.18734486674146Q1321.0053174314276 402.2199740723992 1321.0053174314276 410.5117203492073ZM1280.5254727606216 407.48868785245435L1280.5254727606216 405.27179735483554Q1280.5254727606216 402.42150957218274 1279.920866261271 399.4272678611132Q1279.3162597619203 396.461816935727 1277.9630928348024 394.01460015264126Q1276.5811351220013 391.59617415523894 1274.364244624382 390.0126809426541Q1272.11856334108 388.45797851575253 1268.77883220181 388.45797851575253L1268.77883220181 388.45797851575253Q1264.7481222061397 388.45797851575253 1261.66750813802 390.646078227688Q1258.558103284217 392.8053871539401 1256.3412127865981 396.08753672184326Q1254.1243222889793 399.3984770754298 1252.6847830048112 403.22765157131687Q1251.2740345063266 407.08561685288726 1250.5830556499259 410.31018484942376L1250.5830556499259 410.31018484942376L1280.5254727606216 407.48868785245435ZM1458.4813190694776 347.373527345596L1508.4621230157927 351.8073083408337L1484.7960971840698 488.0453061944992L1427.3008981743974 489.28330997888366L1414.9496511162351 420.64607690975043L1402.5984040580734 484.01459619882854L1345.103205048401 486.02995119666383L1321.2356437168942 355.86680912218765L1371.417983162993 351.40423734126665L1381.552339723536 431.3850399696442L1395.1127997803992 357.47909312045584L1434.5849669522877 357.47909312045584L1450.3623175067696 432.39271746856184L1458.4813190694776 347.373527345596ZM1615.8517536147301 440.4829282455863L1615.8517536147301 440.4829282455863Q1615.8517536147301 454.36008694496644 1611.043692405609 464.40807114845956Q1606.264421982171 474.48484613763594 1597.8863033483126 481.02035448775894Q1589.536975500138 487.555862837882 1578.3661506549938 490.63647690600163Q1567.166535024166 493.7170909741213 1554.3258446093869 493.7170909741213L1554.3258446093869 493.7170909741213Q1549.3738294718491 493.7170909741213 1543.4429276210763 492.42150561837Q1537.5120257703043 491.0971294769354 1531.4371699911148 489.11056526478353Q1525.391104997609 487.1527918383149 1519.7481110036701 484.8783197693294Q1514.1339077954149 482.5750569146605 1509.7864991572274 480.5597019168252L1509.7864991572274 480.5597019168252L1514.2490709381482 440.8859992451534Q1522.8575158574731 446.03954988247506 1533.3085710605333 448.745883736711Q1543.7884170492766 451.4234268052636 1553.92277360982 451.4234268052636L1553.92277360982 451.4234268052636Q1555.8517562506054 451.4234268052636 1558.5868808905243 451.2506820911634Q1561.3220055304437 451.10672816274666 1563.7980130992128 450.35816773497925Q1566.2740206679819 449.5808165215285 1568.0014678089833 448.0836956659937Q1569.700124164302 446.5577840247756 1569.700124164302 443.70749624212283L1569.700124164302 443.70749624212283Q1569.700124164302 441.80730438702096 1568.4909111656007 440.42534667421967Q1567.2816981668998 439.07217974710164 1565.3527155261145 438.2084561766008Q1563.4237328853292 437.3447326060999 1561.005306887927 436.88408003516616Q1558.5868808905243 436.4234274642324 1556.2548272501722 436.2218919644489Q1553.92277360982 436.0203564646653 1551.9074186119847 436.0203564646653Q1549.863272828466 436.0203564646653 1548.6540598297647 436.0203564646653L1548.6540598297647 436.0203564646653Q1539.9592425533897 436.0203564646653 1532.8191277039164 433.285231824746Q1525.6790128544426 430.5501071848267 1520.5830437884874 425.54051047592185Q1515.4582839368495 420.530913767017 1512.63678693988 413.41958970322673Q1509.7864991572274 406.2794748537532 1509.7864991572274 397.5558667916947L1509.7864991572274 397.5558667916947Q1509.7864991572274 385.63648151878317 1514.5945603663486 376.1643130289573Q1519.4026215754698 366.69214453913145 1527.464041566811 360.07026383195836Q1535.4966707724689 353.4483831247853 1545.9189351898458 349.9071164857319Q1556.3411996072223 346.33705906099505 1567.4832336666832 346.33705906099505L1567.4832336666832 346.33705906099505Q1572.4352488042214 346.33705906099505 1577.7039625842763 346.71133927487875Q1582.9726763643316 347.0568287030791 1588.18380857302 347.9781338449466Q1593.3949407817086 348.87064820113085 1598.3469559192463 350.3101874852989Q1603.3277618424681 351.7209359837836 1607.7615428377053 353.85145412435236L1607.7615428377053 353.85145412435236L1603.9323683418183 394.93590529450887Q1597.0513705634953 392.6038516541566 1589.5081847144543 391.04914922725504Q1581.9649988654137 389.46565601467023 1574.7673024445735 389.46565601467023L1574.7673024445735 389.46565601467023Q1573.4429263031388 389.46565601467023 1571.369989733937 389.5232375860369Q1569.2970531647352 389.58081915740365 1567.0225810957495 389.81114544287055Q1564.7481090267638 390.0702625140208 1562.4160553864117 390.5884966563213Q1560.0840017460591 391.0779400129384 1558.2701822480076 391.94166358343927Q1556.4563627499556 392.8053871539401 1555.3335221083048 394.2161356524248Q1554.2106814666536 395.65567493659285 1554.3258446093869 397.5558667916947L1554.3258446093869 397.5558667916947Q1554.4410077521206 399.8015480749969 1555.995710179022 401.01076107369806Q1557.5504126059236 402.2199740723992 1560.055210960376 402.7669990003831Q1562.531218529145 403.34281471405035 1565.4966694545315 403.34281471405035Q1568.4909111656007 403.34281471405035 1571.4275713053034 403.17006999995016Q1574.3642314450067 403.02611607153335 1576.8978205851422 402.88216214311655Q1579.4314097252782 402.73820821469974 1581.0436937235463 402.82458057174983L1581.0436937235463 402.82458057174983Q1589.1339045005707 403.34281471405035 1595.611831279327 406.2794748537532Q1602.0897580580831 409.216134993456 1606.6099114103713 414.0529869882607Q1611.1012739769753 418.91862976874876 1613.4909091886943 425.6556736186553Q1615.8517536147301 432.39271746856184 1615.8517536147301 440.4829282455863Z " fill="#fcff33" transform="matrix(0.5415100593149186,0,0,0.5415100593149187,0,72.7147752589641)"/></g></svg>